<?xml version="1.0" standalone="no"?>
<!DOCTYPE svg PUBLIC "-//W3C//DTD SVG 20010904//EN"
 "http://www.w3.org/TR/2001/REC-SVG-20010904/DTD/svg10.dtd">
<svg version="1.0" xmlns="http://www.w3.org/2000/svg"
 width="2000.000000pt" height="2000.000000pt" viewBox="0 0 2000.000000 2000.000000"
 preserveAspectRatio="xMidYMid meet">

<g transform="translate(0.000000,2000.000000) scale(0.100000,-0.100000)"
fill="#000000" stroke="none">
<path d="M14491 14124 c-15 -19 -21 -41 -21 -80 0 -64 13 -100 48 -137 35 -37
64 -52 132 -67 92 -21 138 -103 87 -154 -32 -31 -74 -34 -133 -7 -75 34 -101
36 -119 7 -14 -21 -16 -48 -13 -160 3 -125 5 -136 26 -159 25 -26 115 -55 240
-77 81 -14 107 -26 121 -57 23 -50 2 -125 -38 -138 -11 -3 -65 3 -121 15 -105
21 -177 25 -196 12 -26 -17 -34 -56 -34 -169 0 -155 17 -181 135 -198 28 -4
111 -23 185 -42 164 -42 185 -57 184 -133 -1 -56 -31 -100 -68 -100 -11 0 -94
21 -184 46 -241 68 -245 65 -218 -167 19 -171 36 -223 77 -245 16 -8 102 -24
192 -35 95 -12 172 -26 185 -35 48 -32 51 -119 6 -168 -21 -22 -33 -26 -81
-26 -30 0 -103 7 -160 16 -58 8 -112 13 -119 10 -20 -7 -18 -32 10 -133 142
-509 139 -503 189 -503 12 0 65 14 117 30 124 39 155 39 175 0 44 -85 -23
-194 -132 -215 -71 -13 -103 -32 -103 -59 0 -45 163 -389 257 -542 69 -114
123 -186 136 -181 11 3 15 10 76 114 123 210 317 640 298 659 -2 3 -28 -10
-56 -27 l-51 -32 -25 23 c-20 19 -25 33 -25 69 1 71 41 133 135 208 44 35 96
77 117 93 41 34 64 98 117 325 53 232 101 635 75 635 -6 0 -14 -7 -17 -15 -14
-34 -259 -395 -270 -396 -46 -5 -77 27 -77 80 0 46 52 152 161 326 220 351
204 320 202 395 -2 97 -39 291 -74 394 -17 50 -34 94 -38 98 -6 6 -41 -72
-167 -372 -133 -318 -139 -330 -179 -330 -59 0 -77 90 -37 185 11 28 49 120
83 205 175 440 195 510 167 591 -15 46 -72 117 -130 162 -55 44 -53 46 -88
-73 -63 -211 -152 -466 -167 -477 -26 -20 -51 -16 -78 12 -41 40 -39 55 70
397 19 58 42 145 51 192 21 105 11 152 -39 190 -42 32 -210 107 -219 98 -7 -8
-25 -153 -38 -302 -4 -52 -11 -103 -15 -112 -9 -22 -54 -32 -88 -19 -41 16
-50 51 -38 151 14 111 13 256 -2 300 -21 61 -99 94 -282 120 -94 13 -91 14
-114 -16z m955 -1079 c10 -40 -4 -88 -51 -183 -91 -181 -221 -239 -179 -80 26
103 64 171 137 251 42 45 83 51 93 12z m-460 -69 c50 -33 41 -102 -18 -132
-71 -37 -211 -12 -224 40 -14 57 10 89 81 107 43 12 133 3 161 -15z m712 -418
c18 -18 15 -46 -17 -130 -49 -132 -159 -264 -213 -256 -91 13 108 394 208 398
5 0 15 -5 22 -12z m-719 -214 c46 -9 81 -47 81 -86 0 -18 -4 -38 -8 -44 -43
-62 -201 -57 -246 8 -33 47 -13 108 39 121 30 7 99 8 134 1z m759 -646 c4 -51
-26 -104 -105 -189 -111 -117 -203 -145 -203 -60 0 92 195 297 275 289 27 -3
30 -7 33 -40z m-603 -20 c75 -34 15 -136 -113 -196 -39 -17 -64 -23 -89 -19
-49 8 -63 23 -63 70 0 34 6 46 41 78 75 70 162 96 224 67z"/>
<path d="M17971 13735 c-30 -7 -60 -20 -67 -30 -7 -9 -15 -64 -19 -123 -6 -84
-12 -112 -28 -134 -24 -33 -37 -35 -67 -10 -20 16 -22 26 -21 106 1 54 -3 94
-10 102 -15 18 -70 18 -112 0 -40 -16 -114 -96 -123 -132 -4 -15 1 -89 11
-165 16 -129 16 -140 1 -164 -22 -33 -70 -34 -90 -2 -8 12 -24 82 -35 156 -12
73 -24 137 -27 142 -11 18 -61 8 -106 -20 -50 -32 -96 -99 -104 -153 -3 -19
10 -106 30 -207 20 -95 36 -184 36 -197 0 -42 -81 -74 -108 -41 -6 7 -15 40
-21 72 -31 180 -81 355 -103 355 -4 0 -24 -25 -43 -55 -19 -30 -54 -74 -76
-97 -84 -87 -96 -156 -43 -260 60 -117 96 -254 76 -284 -12 -19 -52 -35 -71
-29 -18 5 -74 115 -87 172 -8 36 -55 123 -65 123 -5 0 -26 -31 -49 -68 -77
-130 -149 -344 -135 -400 3 -14 32 -52 64 -86 59 -61 91 -111 91 -141 0 -19
-47 -65 -67 -65 -8 0 -38 23 -67 50 -67 64 -81 64 -90 3 -29 -205 -38 -299
-39 -443 -1 -196 2 -210 46 -210 62 0 326 79 356 106 2 2 -13 22 -33 44 -41
45 -42 50 -21 89 28 55 66 54 153 -4 40 -27 78 -45 95 -45 38 0 287 138 335
187 8 8 25 21 38 30 43 28 29 40 -68 62 -176 41 -203 59 -179 124 22 56 78 55
315 -7 50 -13 98 -21 108 -18 24 6 119 113 181 204 43 64 47 73 30 79 -10 3
-99 9 -198 13 -104 4 -190 12 -205 19 -33 16 -39 64 -12 97 18 22 29 25 123
28 57 3 148 -1 201 -8 116 -16 158 -7 205 42 30 31 73 135 73 176 0 38 -18 42
-191 42 -139 0 -170 3 -183 16 -23 22 -20 59 8 91 l24 28 191 5 c158 4 193 8
207 21 9 10 24 61 35 130 20 113 19 165 -4 156 -7 -2 -63 -17 -126 -32 -134
-33 -146 -30 -146 36 0 40 3 45 35 61 19 9 70 29 113 43 89 31 136 60 154 95
13 26 19 293 7 324 -7 19 -29 19 -103 1z m-605 -584 c20 -19 34 -48 42 -81 29
-125 2 -168 -66 -107 -41 37 -68 177 -40 205 18 18 31 15 64 -17z m-346 -274
c35 -29 51 -57 61 -111 14 -78 5 -116 -27 -116 -50 0 -94 85 -94 180 0 57 24
76 60 47z m524 -191 c55 -32 68 -62 36 -88 -31 -25 -115 -24 -158 2 -32 19
-72 73 -72 97 0 33 132 25 194 -11z m-788 -235 c65 -46 104 -123 83 -162 -14
-27 -39 -24 -89 10 -71 47 -111 136 -78 169 19 19 42 14 84 -17z m572 -147
c64 -21 92 -46 92 -84 0 -44 -27 -54 -106 -41 -82 15 -109 27 -123 58 -34 74
25 103 137 67z m-339 -344 c53 -27 111 -83 111 -108 0 -12 -9 -27 -21 -35 -17
-13 -28 -13 -70 -2 -28 8 -61 21 -75 30 -49 32 -83 116 -51 128 27 11 70 6
106 -13z"/>
<path d="M6015 12164 c-49 -47 -123 -113 -163 -147 -46 -39 -81 -78 -94 -107
-25 -51 -27 -93 -47 -905 -6 -247 -13 -502 -16 -565 -2 -63 -7 -401 -11 -750
-7 -718 -5 -736 62 -874 74 -151 228 -271 402 -312 85 -20 313 -22 437 -5 158
23 370 95 583 197 86 42 114 65 98 81 -3 4 -50 -2 -104 -13 -79 -15 -139 -19
-322 -19 l-225 0 -93 32 c-103 36 -184 87 -253 160 -125 129 -181 288 -201
568 -11 163 -11 219 37 2120 17 687 17 625 8 625 -5 -1 -48 -39 -98 -86z"/>
<path d="M17586 11396 c-58 -22 -103 -72 -153 -171 -60 -120 -172 -286 -204
-304 -22 -12 -31 -12 -58 -2 -54 23 -50 44 40 212 45 85 90 166 101 181 10 14
18 28 18 31 0 7 -85 -16 -156 -42 -82 -31 -319 -155 -376 -196 -63 -46 -80
-82 -89 -190 -15 -183 -48 -255 -118 -255 -45 0 -62 32 -60 114 3 89 -10 101
-57 55 -49 -47 -209 -231 -264 -304 -118 -156 -233 -351 -228 -387 2 -17 14
-27 43 -36 65 -21 335 -76 342 -69 3 4 5 36 4 72 -1 57 1 68 23 90 41 41 106
29 119 -23 3 -9 11 -46 18 -81 19 -98 31 -106 185 -130 71 -12 164 -21 206
-21 l77 0 -24 58 c-13 31 -37 89 -54 127 -17 39 -31 85 -31 103 0 59 71 102
111 66 29 -26 87 -156 105 -235 18 -79 59 -126 118 -136 35 -5 147 8 205 25
53 15 50 30 -42 220 -48 99 -87 193 -87 209 0 63 70 104 112 66 24 -21 114
-206 153 -315 36 -102 49 -118 88 -118 47 1 169 46 190 71 23 29 22 36 -19
137 -51 125 -84 222 -84 249 0 61 93 98 125 49 19 -28 87 -207 110 -289 26
-92 50 -94 206 -16 107 53 109 60 43 202 -26 54 -46 110 -46 124 0 30 27 59
65 69 23 5 33 1 60 -28 17 -19 50 -71 71 -114 47 -94 63 -114 88 -114 11 0 82
29 159 65 76 36 142 65 146 65 5 1 23 14 42 30 41 35 43 66 7 118 -14 21 -26
43 -26 50 0 6 -9 16 -20 22 -15 8 -41 2 -122 -29 -168 -63 -198 -63 -198 1 0
40 45 81 118 107 115 41 128 59 97 124 -21 45 -140 167 -163 167 -20 0 -38
-13 -176 -120 -199 -155 -218 -163 -259 -109 -17 23 -17 29 -5 52 7 14 36 43
63 65 168 136 240 200 243 213 8 44 -82 105 -172 115 -97 12 -120 -4 -319
-206 -201 -205 -230 -221 -272 -156 -16 24 -16 27 1 55 21 32 213 240 259 280
82 72 92 93 58 123 -27 23 -283 34 -337 14z m-40 -291 c9 -38 -1 -67 -54 -143
-56 -84 -104 -126 -131 -117 -30 9 -32 31 -10 90 33 89 129 195 176 195 7 0
15 -11 19 -25z m479 -84 c14 -46 -93 -195 -170 -237 -31 -17 -36 -17 -50 -3
-14 14 -14 21 4 70 45 120 194 237 216 170z m-1071 -43 c35 -50 12 -201 -39
-256 -38 -42 -59 -39 -80 13 -19 45 -19 88 1 156 30 101 82 139 118 87z m642
-361 c52 -45 72 -214 32 -264 -14 -17 -53 -16 -67 1 -21 25 -51 129 -51 175 0
45 29 111 49 111 6 0 22 -10 37 -23z m-396 -252 c31 -64 41 -174 16 -194 -29
-25 -78 -2 -103 47 -30 61 -40 164 -19 197 15 23 19 24 49 12 23 -9 39 -27 57
-62z m-491 -29 c61 -64 69 -243 12 -261 -32 -10 -56 10 -81 66 -56 130 -5 274
69 195z"/>
<path d="M10935 11281 c-47 -22 -99 -74 -114 -114 -17 -46 -13 -133 8 -175 40
-78 107 -116 203 -115 126 0 209 78 216 202 4 61 1 70 -30 116 -62 93 -187
131 -283 86z"/>
<path d="M2702 11111 c-86 -22 -152 -103 -152 -189 0 -56 15 -90 58 -135 78
-80 202 -83 285 -8 47 42 67 85 67 141 0 72 -42 138 -110 175 -34 18 -107 26
-148 16z"/>
<path d="M3155 11091 c-82 -37 -134 -129 -120 -213 8 -47 58 -115 105 -142 44
-26 141 -28 187 -3 17 9 48 37 68 61 62 75 61 162 -2 236 -65 75 -155 99 -238
61z"/>
<path d="M14262 10738 c-16 -29 -55 -100 -87 -158 -31 -58 -70 -127 -86 -155
-31 -54 -36 -103 -16 -145 7 -14 50 -79 97 -144 89 -125 180 -256 327 -470 48
-72 107 -156 131 -187 24 -33 42 -68 42 -83 0 -14 -2 -26 -5 -26 -3 0 -28 11
-55 25 -66 33 -151 44 -413 51 -156 5 -221 10 -231 19 -7 7 -18 37 -24 66 -18
77 -91 198 -217 356 -60 76 -114 143 -120 149 -65 67 -145 255 -145 340 0 24
-3 44 -7 44 -17 -1 -206 -296 -264 -411 -54 -108 -59 -159 -25 -235 23 -51 63
-95 285 -314 298 -293 316 -317 315 -435 -1 -81 -36 -174 -102 -272 -115 -168
-244 -265 -448 -336 -240 -84 -457 -81 -784 9 -52 14 -102 30 -112 35 -32 17
-57 10 -64 -18 -6 -21 -2 -30 16 -42 25 -16 148 -70 280 -122 41 -16 89 -36
105 -43 49 -22 305 -103 370 -117 96 -20 229 -17 310 9 203 62 409 308 498
593 14 46 34 111 44 143 31 103 10 99 434 87 406 -12 445 -18 544 -79 85 -53
145 -136 183 -254 17 -51 34 -110 38 -131 3 -20 10 -39 14 -42 13 -8 127 121
170 194 117 197 132 409 44 621 -11 25 -39 79 -62 120 -43 75 -54 93 -152 250
-29 47 -64 103 -77 125 -32 53 -152 236 -288 437 -61 90 -168 249 -239 353
-123 182 -171 245 -187 245 -4 0 -21 -24 -37 -52z"/>
<path d="M11017 10674 c-416 -64 -844 -382 -1013 -751 -203 -446 -149 -905
156 -1318 95 -129 267 -292 659 -625 46 -39 99 -90 117 -113 19 -23 51 -63 72
-89 95 -119 167 -98 274 80 56 95 117 183 230 334 295 396 352 476 503 705 26
40 54 78 61 84 24 20 92 12 150 -18 75 -37 127 -97 197 -226 32 -59 60 -107
62 -107 2 0 34 42 72 93 157 210 293 445 333 572 33 106 31 252 -5 365 -31 96
-102 241 -170 345 -98 151 -139 263 -133 359 1 31 0 55 -3 54 -13 -6 -130
-147 -213 -258 -97 -129 -126 -194 -126 -278 0 -77 39 -156 125 -252 162 -181
243 -306 252 -392 5 -47 -15 -119 -34 -125 -7 -3 -28 29 -49 71 -94 190 -235
284 -450 301 -176 14 -237 47 -375 204 -158 179 -212 249 -247 321 -34 69 -37
82 -37 162 0 49 -2 88 -5 88 -6 0 -138 -152 -182 -210 -213 -282 -198 -482 53
-727 64 -62 125 -114 339 -291 95 -78 138 -126 149 -170 21 -75 4 -111 -148
-317 -37 -49 -108 -149 -159 -221 -50 -73 -99 -134 -107 -138 -11 -4 -51 27
-126 99 -61 58 -133 123 -162 144 -29 22 -89 68 -133 103 -45 35 -99 76 -120
93 -157 120 -356 314 -446 432 -141 186 -208 370 -208 569 0 251 100 466 315
678 182 179 464 301 746 323 84 6 111 21 89 48 -16 19 -177 19 -303 -1z"/>
<path d="M6927 10413 c-53 -109 -102 -222 -108 -251 -21 -103 9 -201 84 -269
59 -54 124 -87 228 -113 89 -23 184 -27 1029 -45 486 -10 613 -20 724 -55 182
-59 287 -162 303 -299 l6 -54 -69 70 c-112 113 -234 159 -449 169 -55 2 -413
11 -795 19 -382 9 -738 20 -790 25 -205 20 -329 107 -378 266 -9 30 -19 54
-23 54 -8 0 -21 -25 -239 -453 -95 -186 -170 -340 -168 -341 5 -5 1188 -34
1853 -46 762 -14 888 -21 940 -47 51 -27 86 -65 117 -127 l25 -49 45 84 c95
176 135 349 125 543 -11 238 -130 442 -322 554 -192 112 -377 138 -1085 148
-497 7 -613 24 -723 101 -90 63 -141 137 -177 253 -31 97 -42 87 -153 -137z"/>
<path d="M1635 10518 c-149 -164 -260 -371 -290 -543 -43 -251 8 -438 165
-595 86 -86 155 -130 281 -177 209 -78 508 -95 984 -54 536 46 836 10 1033
-126 97 -66 180 -189 217 -319 10 -32 19 -61 21 -63 13 -14 205 252 269 371
31 59 70 118 91 140 39 41 268 30 372 -17 70 -32 147 -114 195 -206 53 -104
72 -127 94 -113 10 5 52 60 93 121 41 61 91 133 110 160 157 218 221 405 206
593 -14 168 -59 277 -214 514 -83 127 -116 222 -109 319 2 37 1 66 -3 65 -10
-4 -132 -154 -214 -261 -106 -141 -119 -168 -124 -257 -6 -103 20 -161 124
-280 132 -150 207 -254 230 -319 23 -63 11 -201 -17 -201 -6 0 -21 24 -33 53
-31 69 -103 165 -158 210 -25 20 -101 62 -169 93 -256 116 -313 172 -526 514
-123 196 -138 234 -138 338 0 45 -2 82 -5 82 -7 -1 -127 -149 -218 -269 -102
-136 -126 -189 -126 -276 0 -95 23 -140 136 -271 158 -185 228 -286 264 -382
28 -74 30 -130 7 -197 -16 -47 -17 -48 -26 -25 -88 215 -163 308 -321 395 -97
54 -257 97 -432 116 -128 14 -459 7 -749 -16 -243 -19 -365 -19 -512 0 -201
27 -307 64 -418 148 -189 142 -191 363 -6 695 40 72 40 73 21 92 -11 11 -24
20 -29 20 -5 0 -39 -33 -76 -72z"/>
<path d="M4396 8646 c-77 -29 -136 -111 -136 -189 0 -45 35 -112 78 -150 27
-25 88 -46 132 -46 82 -1 178 76 201 162 37 138 -132 276 -275 223z"/>
<path d="M4861 8628 c-88 -45 -126 -129 -107 -232 14 -75 101 -138 191 -140
153 -2 250 147 182 280 -52 102 -170 143 -266 92z"/>
<path d="M14444 8518 c-59 -40 -90 -84 -98 -140 -11 -76 18 -143 83 -190 41
-29 55 -33 121 -36 69 -3 79 -1 123 27 59 38 86 92 87 170 0 121 -82 201 -206
201 -53 0 -69 -5 -110 -32z"/>
<path d="M8483 8450 c-39 -23 -45 -51 -47 -203 -1 -102 -2 -110 -25 -128 -14
-12 -31 -17 -40 -13 -9 3 -47 9 -86 11 -140 10 -245 -61 -321 -216 -127 -262
-43 -633 157 -692 21 -6 112 -7 242 -3 195 7 209 8 222 28 12 16 15 65 15 241
0 121 5 288 11 370 6 83 12 248 12 369 1 217 1 219 -22 237 -30 24 -78 24
-118 -1z m-115 -520 c26 -12 46 -29 52 -45 15 -39 13 -424 -3 -454 -23 -45
-63 -66 -126 -65 -130 2 -211 110 -211 279 0 134 49 231 140 278 63 32 90 33
148 7z"/>
<path d="M8873 8415 c-41 -29 -52 -132 -20 -176 34 -45 111 -53 147 -14 18 19
25 40 28 83 4 52 1 61 -23 90 -22 27 -34 32 -69 32 -23 0 -51 -7 -63 -15z"/>
<path d="M10190 8286 c-31 -17 -85 -90 -132 -176 -63 -115 -72 -194 -22 -206
48 -12 49 -20 49 -308 0 -254 1 -274 21 -316 42 -91 118 -130 254 -130 78 0
107 14 120 59 28 101 8 131 -83 124 -60 -5 -66 -4 -96 24 l-33 29 0 199 c0
110 1 213 1 228 1 18 13 40 32 59 28 29 33 30 86 24 75 -9 93 7 93 79 0 58
-22 88 -62 85 -57 -5 -89 2 -115 24 -26 22 -28 31 -33 117 -5 91 -6 94 -30 96
-14 2 -36 -4 -50 -11z"/>
<path d="M4062 8209 c-22 -20 -40 -28 -50 -24 -153 59 -281 37 -377 -66 -104
-111 -118 -260 -38 -418 39 -78 43 -103 20 -130 -50 -56 -63 -158 -27 -203 38
-49 90 -61 231 -53 105 6 131 4 156 -9 70 -36 53 -131 -27 -154 -14 -4 -60 -7
-102 -7 -65 0 -81 4 -105 23 -15 12 -42 30 -60 39 -29 15 -34 15 -56 0 -32
-21 -79 -102 -75 -130 3 -24 94 -81 168 -104 60 -19 207 -18 273 1 146 42 239
190 208 329 -33 148 -164 215 -341 174 -59 -14 -67 -14 -82 0 -10 9 -18 21
-18 27 1 28 22 38 98 47 150 17 234 64 286 159 36 67 46 193 22 280 l-15 55
30 43 30 44 -21 34 c-23 36 -66 74 -84 74 -6 0 -26 -14 -44 -31z m-125 -184
c67 -44 83 -189 28 -261 -44 -57 -112 -71 -173 -34 -83 50 -88 233 -8 290 46
33 107 35 153 5z"/>
<path d="M4695 8190 c-16 -4 -81 -8 -143 -9 -123 -1 -171 -14 -195 -53 -11
-17 -16 -72 -21 -223 -3 -110 -9 -267 -12 -350 -8 -184 2 -230 50 -250 30 -13
97 -8 113 9 14 14 22 106 23 263 0 331 44 435 183 432 65 -2 105 21 131 75 27
58 20 87 -27 105 -31 12 -57 12 -102 1z"/>
<path d="M5173 8160 c-105 -37 -199 -144 -244 -277 -40 -117 -26 -322 28 -428
98 -188 364 -265 537 -155 39 25 46 35 46 61 0 44 -38 109 -64 109 -12 -1 -46
-9 -76 -20 -108 -38 -177 -23 -247 53 -65 70 -68 134 -8 157 11 4 112 4 224
-1 240 -10 263 -5 280 58 45 160 -70 384 -225 443 -71 26 -179 26 -251 0z
m234 -176 c46 -37 66 -89 53 -135 -5 -18 -15 -36 -22 -41 -19 -11 -276 -10
-298 2 -53 28 -25 131 48 180 43 29 53 31 114 28 57 -3 73 -8 105 -34z"/>
<path d="M6038 8155 c-164 -45 -298 -247 -297 -450 0 -81 26 -203 55 -264 37
-75 120 -154 192 -183 81 -31 223 -31 305 1 46 18 62 30 74 56 15 31 15 37 -1
79 -22 57 -45 65 -118 40 -71 -24 -152 -23 -204 4 -51 26 -96 90 -98 139 -2
60 14 64 264 57 245 -6 257 -4 278 61 43 126 -48 348 -174 426 -74 46 -185 59
-276 34z m190 -182 c37 -17 82 -86 82 -124 0 -14 -6 -33 -13 -43 -12 -16 -28
-18 -159 -14 -160 3 -178 9 -178 62 0 109 147 174 268 119z"/>
<path d="M6662 8126 c-17 -23 -20 -49 -26 -278 -3 -139 -9 -321 -13 -405 l-6
-151 26 -26 c33 -33 102 -36 138 -7 l24 19 5 294 c3 196 9 300 17 313 29 51
71 78 128 83 67 5 104 -9 136 -51 24 -32 24 -34 29 -347 l5 -314 25 -14 c30
-16 106 -10 126 10 20 20 40 520 25 619 -25 161 -125 265 -263 276 -51 4 -76
0 -132 -21 -85 -32 -106 -32 -152 -1 -46 31 -67 32 -92 1z"/>
<path d="M11806 8100 c-52 -26 -74 -47 -97 -92 -24 -47 -25 -131 -1 -177 36
-71 137 -122 214 -107 90 17 177 114 177 196 1 94 -111 200 -209 200 -25 -1
-63 -10 -84 -20z"/>
<path d="M12337 8099 c-102 -16 -162 -86 -162 -189 0 -74 27 -125 89 -167 41
-28 57 -33 106 -33 111 0 200 89 200 200 0 125 -104 209 -233 189z"/>
<path d="M8827 8092 c-64 -3 -80 -17 -91 -84 -8 -44 5 -74 36 -84 60 -18 58
-7 58 -368 -1 -328 -1 -331 21 -348 29 -25 103 -24 128 1 20 20 18 -16 34 773
1 50 -2 81 -10 89 -16 16 -97 25 -176 21z"/>
<path d="M9440 8071 c-82 -32 -177 -116 -214 -190 -79 -156 -79 -378 -1 -531
23 -45 88 -113 136 -142 105 -65 301 -62 400 5 29 20 34 29 33 63 0 21 -8 52
-18 67 -22 32 -50 35 -120 11 -128 -44 -268 23 -283 135 -9 69 0 72 231 71
302 -2 273 -5 292 33 42 80 10 266 -62 357 -41 52 -129 115 -182 130 -57 15
-161 11 -212 -9z m175 -172 c21 -6 54 -26 72 -44 51 -51 41 -104 -21 -125 -33
-11 -198 -13 -243 -3 -27 6 -42 48 -32 89 21 76 118 112 224 83z"/>
</g>
</svg>
